<?xml version="1.0" standalone="no"?>
<!DOCTYPE svg PUBLIC "-//W3C//DTD SVG 20010904//EN"
 "http://www.w3.org/TR/2001/REC-SVG-20010904/DTD/svg10.dtd">
<svg version="1.0" xmlns="http://www.w3.org/2000/svg"
 width="776.000000pt" height="776.000000pt" viewBox="0 0 776.000000 776.000000"
 preserveAspectRatio="xMidYMid meet">
<metadata>
Created by potrace 1.11, written by Peter Selinger 2001-2013
</metadata>
<g transform="translate(0.000000,776.000000) scale(0.100000,-0.100000)"
fill="#000000" stroke="none">
<path d="M4135 7039 c-987 -81 -1783 -794 -1972 -1767 -23 -120 -27 -167 -30
-376 l-3 -240 -83 -65 c-440 -347 -739 -894 -798 -1460 -17 -161 -7 -464 20
-607 128 -688 563 -1264 1185 -1568 304 -149 598 -218 941 -219 260 -1 460 30
702 109 134 44 378 162 498 241 455 301 784 760 916 1279 48 192 62 310 64
540 l1 212 78 62 c415 329 690 795 787 1330 31 167 37 453 14 630 -81 641
-430 1199 -970 1552 -313 206 -644 316 -1039 348 -142 11 -165 11 -311 -1z
m-507 -1990 c987 -107 1768 -850 1917 -1825 l15 -99 -28 -23 c-51 -41 -190
-123 -308 -178 -204 -98 -448 -168 -674 -195 -123 -14 -390 -14 -505 0 -661
85 -1240 454 -1587 1013 -153 246 -273 587 -304 860 l-7 57 94 61 c257 167
581 283 902 325 128 16 357 18 485 4z"/>
</g>
</svg>
