<svg width="979" height="652" viewBox="0 0 979 652" fill="none" xmlns="http://www.w3.org/2000/svg">
<rect x="48" y="49" width="882" height="525" rx="20" fill="white" stroke="#2B4FEB" stroke-width="16"/>
<path d="M489.793 576V613H443H535" stroke="#2B4FEB" stroke-width="16" stroke-linecap="round" stroke-linejoin="round"/>
<rect x="481" y="163" width="296" height="296" rx="12" fill="#21CEA1"/>
<rect x="122" y="163" width="235" height="33" rx="12" fill="#2B4FEB"/>
<path d="M678.232 444.761L701.194 421.761C702.32 420.634 703.847 420 705.44 420H822C825.314 420 828 422.686 828 426V472C828 475.314 825.314 478 822 478H705.44C703.847 478 702.32 477.366 701.194 476.239L678.232 453.239C675.894 450.897 675.894 447.103 678.232 444.761Z" fill="#2B4FEB"/>
<path d="M763.033 458.881C763.272 459.387 763.392 459.88 763.392 460.359C763.392 461.237 763.033 461.983 762.314 462.595C761.622 463.207 760.823 463.514 759.918 463.514C759.306 463.514 758.747 463.354 758.241 463.034C757.735 462.715 757.335 462.236 757.043 461.597L755.246 457.563H742.307L740.47 461.597C740.177 462.236 739.764 462.715 739.232 463.034C738.726 463.354 738.167 463.514 737.554 463.514C736.649 463.514 735.824 463.207 735.078 462.595C734.359 461.983 734 461.237 734 460.359C734 459.88 734.12 459.387 734.359 458.881L744.902 437.236C745.248 436.518 745.754 435.972 746.42 435.599C747.112 435.2 747.871 435 748.696 435C749.495 435 750.24 435.2 750.933 435.599C751.625 435.972 752.144 436.518 752.49 437.236L763.033 458.881ZM744.783 452.052H752.77L748.776 443.147L744.783 452.052Z" fill="white"/>
<path d="M770.251 463.394C769.159 463.394 768.321 463.101 767.735 462.515C767.149 461.93 766.856 461.078 766.856 459.959V438.634C766.856 437.543 767.176 436.677 767.815 436.038C768.48 435.373 769.372 435.04 770.49 435.04C771.635 435.04 772.54 435.373 773.206 436.038C773.872 436.677 774.204 437.543 774.204 438.634V457.444H783.389C785.706 457.444 786.864 458.442 786.864 460.439C786.864 461.45 786.571 462.196 785.985 462.675C785.426 463.154 784.561 463.394 783.389 463.394H770.251Z" fill="white"/>
<path d="M795.181 463.594C794.063 463.594 793.158 463.274 792.465 462.635C791.8 461.969 791.467 461.091 791.467 459.999V441.19H785.836C784.665 441.19 783.786 440.95 783.2 440.471C782.641 439.965 782.362 439.206 782.362 438.195C782.362 437.183 782.641 436.438 783.2 435.958C783.786 435.479 784.665 435.24 785.836 435.24H804.526C805.697 435.24 806.562 435.479 807.122 435.958C807.707 436.438 808 437.183 808 438.195C808 439.206 807.707 439.965 807.122 440.471C806.562 440.95 805.697 441.19 804.526 441.19H798.895V459.999C798.895 461.091 798.549 461.969 797.857 462.635C797.191 463.274 796.299 463.594 795.181 463.594Z" fill="white"/>
<circle cx="706" cy="449" r="7" fill="white" fill-opacity="0.6"/>
<rect x="122" y="278" width="298" height="50" rx="6" stroke="#2B4FEB" stroke-width="8"/>
<rect x="122" y="399" width="298" height="50" rx="6" stroke="#2B4FEB" stroke-width="8"/>
<path opacity="0.6" d="M135 257H258" stroke="#2B4FEB" stroke-width="20" stroke-linecap="round" stroke-linejoin="round"/>
<path opacity="0.6" d="M135 378H258" stroke="#2B4FEB" stroke-width="20" stroke-linecap="round" stroke-linejoin="round"/>
</svg>
