<svg width="648" height="843" viewBox="0 0 648 843" fill="none" xmlns="http://www.w3.org/2000/svg">
<path d="M567.967 454.408H79.4526C73.044 454.408 67.8489 459.599 67.8489 466.003V747.184C67.8489 753.588 73.044 758.779 79.4526 758.779H567.967C574.376 758.779 579.571 753.588 579.571 747.184V466.003C579.571 459.599 574.376 454.408 567.967 454.408Z" fill="white" stroke="#2B4FEB" stroke-width="16"/>
<path d="M567.967 70.4832H79.4526C73.044 70.4832 67.8489 75.6882 67.8489 82.1089V364.034C67.8489 370.454 73.044 375.66 79.4526 375.66H567.967C574.376 375.66 579.571 370.454 579.571 364.034V82.1089C579.571 75.6882 574.376 70.4832 567.967 70.4832Z" fill="white" stroke="#2B4FEB" stroke-width="16"/>
<path d="M324 398V430M324 430L311 416.743M324 430L337 416.743" stroke="#21CEA0" stroke-width="6" stroke-linecap="round" stroke-linejoin="round"/>
<path d="M149 137H304" stroke="#2B4FEB" stroke-width="10" stroke-linecap="round" stroke-linejoin="round"/>
<path d="M337 137H492" stroke="#2B4FEB" stroke-width="10" stroke-linecap="round" stroke-linejoin="round"/>
<path d="M149 156H304" stroke="#2B4FEB" stroke-width="10" stroke-linecap="round" stroke-linejoin="round"/>
<path d="M337 156H492" stroke="#2B4FEB" stroke-width="10" stroke-linecap="round" stroke-linejoin="round"/>
<path d="M149 175H283" stroke="#2B4FEB" stroke-width="10" stroke-linecap="round" stroke-linejoin="round"/>
<path d="M337 175H471" stroke="#2B4FEB" stroke-width="10" stroke-linecap="round" stroke-linejoin="round"/>
<path d="M149 194H283" stroke="#2B4FEB" stroke-width="10" stroke-linecap="round" stroke-linejoin="round"/>
<path d="M149 578H283" stroke="#2B4FEB" stroke-width="10" stroke-linecap="round" stroke-linejoin="round"/>
<path d="M337 194H481" stroke="#2B4FEB" stroke-width="10" stroke-linecap="round" stroke-linejoin="round"/>
<path d="M149 213H252" stroke="#2B4FEB" stroke-width="10" stroke-linecap="round" stroke-linejoin="round"/>
<path d="M149 597H252" stroke="#2B4FEB" stroke-width="10" stroke-linecap="round" stroke-linejoin="round"/>
<path fill-rule="evenodd" clip-rule="evenodd" d="M167.5 559C173.467 559 179.19 556.629 183.41 552.41C187.629 548.19 190 542.467 190 536.5C190 530.533 187.629 524.81 183.41 520.59C179.19 516.371 173.467 514 167.5 514C161.533 514 155.81 516.371 151.59 520.59C147.371 524.81 145 530.533 145 536.5C145 542.467 147.371 548.19 151.59 552.41C155.81 556.629 161.533 559 167.5 559V559ZM166.248 528.535C165.825 528.252 165.333 528.09 164.824 528.065C164.315 528.041 163.81 528.155 163.361 528.395C162.912 528.635 162.536 528.993 162.275 529.429C162.013 529.866 161.875 530.366 161.875 530.875V542.125C161.875 542.634 162.013 543.134 162.275 543.571C162.536 544.007 162.912 544.365 163.361 544.605C163.81 544.845 164.315 544.959 164.824 544.935C165.333 544.91 165.825 544.748 166.248 544.465L174.686 538.84C175.071 538.583 175.387 538.235 175.605 537.827C175.824 537.419 175.938 536.963 175.938 536.5C175.938 536.037 175.824 535.581 175.605 535.173C175.387 534.765 175.071 534.417 174.686 534.16L166.248 528.535V528.535Z" fill="#21CEA0"/>
<path d="M337 213H471" stroke="#2B4FEB" stroke-width="10" stroke-linecap="round" stroke-linejoin="round"/>
<path d="M337 522H471" stroke="#2B4FEB" stroke-width="10" stroke-linecap="round" stroke-linejoin="round"/>
<path d="M149 232H268" stroke="#2B4FEB" stroke-width="10" stroke-linecap="round" stroke-linejoin="round"/>
<path d="M149 616H268" stroke="#2B4FEB" stroke-width="10" stroke-linecap="round" stroke-linejoin="round"/>
<path d="M337 232H492" stroke="#2B4FEB" stroke-width="10" stroke-linecap="round" stroke-linejoin="round"/>
<path d="M337 541H492" stroke="#2B4FEB" stroke-width="10" stroke-linecap="round" stroke-linejoin="round"/>
<path d="M149 251H304" stroke="#2B4FEB" stroke-width="10" stroke-linecap="round" stroke-linejoin="round"/>
<path d="M149 635H304" stroke="#2B4FEB" stroke-width="10" stroke-linecap="round" stroke-linejoin="round"/>
<path d="M337 251H471" stroke="#2B4FEB" stroke-width="10" stroke-linecap="round" stroke-linejoin="round"/>
<path d="M337 560H471" stroke="#2B4FEB" stroke-width="10" stroke-linecap="round" stroke-linejoin="round"/>
<path d="M149 270H280" stroke="#2B4FEB" stroke-width="10" stroke-linecap="round" stroke-linejoin="round"/>
<path d="M149 654H280" stroke="#2B4FEB" stroke-width="10" stroke-linecap="round" stroke-linejoin="round"/>
<path d="M337 270H461" stroke="#2B4FEB" stroke-width="10" stroke-linecap="round" stroke-linejoin="round"/>
<path d="M337 579H461" stroke="#2B4FEB" stroke-width="10" stroke-linecap="round" stroke-linejoin="round"/>
<path d="M149 289H280" stroke="#2B4FEB" stroke-width="10" stroke-linecap="round" stroke-linejoin="round"/>
<path d="M149 673H280" stroke="#2B4FEB" stroke-width="10" stroke-linecap="round" stroke-linejoin="round"/>
<path d="M337 289H430" stroke="#2B4FEB" stroke-width="10" stroke-linecap="round" stroke-linejoin="round"/>
<path d="M337 598H430" stroke="#2B4FEB" stroke-width="10" stroke-linecap="round" stroke-linejoin="round"/>
<path d="M430 677H475" stroke="#2B4FEB" stroke-opacity="0.6" stroke-width="10" stroke-linecap="round" stroke-linejoin="round"/>
<path d="M149 308H250" stroke="#2B4FEB" stroke-width="10" stroke-linecap="round" stroke-linejoin="round"/>
<path d="M149 692H250" stroke="#2B4FEB" stroke-width="10" stroke-linecap="round" stroke-linejoin="round"/>
<path d="M337 308H461" stroke="#2B4FEB" stroke-width="10" stroke-linecap="round" stroke-linejoin="round"/>
<path d="M337 617H461" stroke="#2B4FEB" stroke-width="10" stroke-linecap="round" stroke-linejoin="round"/>
<path d="M430 696H490" stroke="#2B4FEB" stroke-opacity="0.6" stroke-width="10" stroke-linecap="round" stroke-linejoin="round"/>
<rect x="333" y="632" width="85" height="69" rx="5" fill="#21CEA0"/>
<rect x="341" y="657" width="12" height="37" rx="3" fill="white" fill-opacity="0.9"/>
<rect x="360" y="667" width="12" height="27" rx="3" fill="white" fill-opacity="0.8"/>
<rect x="379" y="641" width="12" height="53" rx="3" fill="white"/>
<rect x="398" y="664" width="12" height="30" rx="3" fill="white" fill-opacity="0.9"/>
</svg>
