<svg width="69" height="69" viewBox="0 0 69 69" fill="none" xmlns="http://www.w3.org/2000/svg">
<path fill-rule="evenodd" clip-rule="evenodd" d="M18.6382 13.9616C18.1479 13.488 17.4911 13.2259 16.8094 13.2318C16.1277 13.2378 15.4756 13.5112 14.9935 13.9933C14.5115 14.4753 14.238 15.1274 14.2321 15.8092C14.2262 16.4909 14.4882 17.1476 14.9618 17.638L51.3618 54.038C51.8522 54.5116 52.509 54.7737 53.1907 54.7678C53.8724 54.7618 54.5245 54.4884 55.0066 54.0063C55.4886 53.5243 55.7621 52.8722 55.768 52.1904C55.7739 51.5087 55.5119 50.852 55.0382 50.3616L51.2084 46.5318C55.258 43.3029 58.2526 38.9396 59.8092 33.9998C56.4968 23.4516 46.6428 15.7998 35 15.7998C30.9244 15.7943 26.905 16.751 23.2688 18.5922L18.6408 13.9616H18.6382ZM29.7168 25.0376L33.6532 28.9766C34.5349 28.7425 35.4625 28.744 36.3434 28.9811C37.2242 29.2182 38.0274 29.6825 38.6724 30.3275C39.3174 30.9725 39.7817 31.7756 40.0187 32.6565C40.2558 33.5373 40.2574 34.465 40.0232 35.3466L43.9596 39.283C45.1322 37.2967 45.6112 34.9769 45.3211 32.6886C45.0311 30.4003 43.9886 28.2733 42.3576 26.6423C40.7266 25.0112 38.5996 23.9687 36.3113 23.6787C34.023 23.3887 31.7032 23.8676 29.7168 25.0402V25.0376Z" fill="white"/>
<path d="M41.3804 51.4119L34.35 44.3789C31.822 44.2205 29.4387 43.145 27.6473 41.3542C25.856 39.5633 24.7798 37.1803 24.6208 34.6523L15.071 25.1025C12.8745 27.7181 11.2161 30.7417 10.1908 33.9997C13.5032 44.5479 23.3598 52.1997 35 52.1997C37.2022 52.1997 39.3394 51.9267 41.3804 51.4119Z" fill="white"/>
</svg>
