<svg width="648" height="843" viewBox="0 0 648 843" fill="none" xmlns="http://www.w3.org/2000/svg">
<path d="M567.967 454.408H79.4526C73.044 454.408 67.8489 459.599 67.8489 466.003V747.184C67.8489 753.588 73.044 758.779 79.4526 758.779H567.967C574.376 758.779 579.571 753.588 579.571 747.184V466.003C579.571 459.599 574.376 454.408 567.967 454.408Z" fill="white" stroke="#2B4FEB" stroke-width="16"/>
<path d="M567.967 70.4832H79.4526C73.044 70.4832 67.8489 75.6882 67.8489 82.1089V364.034C67.8489 370.454 73.044 375.66 79.4526 375.66H567.967C574.376 375.66 579.571 370.454 579.571 364.034V82.1089C579.571 75.6882 574.376 70.4832 567.967 70.4832Z" fill="white" stroke="#2B4FEB" stroke-width="16"/>
<rect x="510" y="307" width="48" height="48" rx="6" fill="#2B4FEB"/>
<rect opacity="0.6" x="505" y="93" width="53" height="24" rx="6" fill="#21CEA0"/>
<rect opacity="0.6" x="189" y="478" width="53" height="24" rx="6" fill="#2B4FEB"/>
<rect x="90" y="93" width="88" height="24" rx="6" fill="#2B4FEB"/>
<rect x="93" y="478" width="88" height="24" rx="6" fill="#2B4FEB"/>
<path opacity="0.6" d="M151 167H210" stroke="#21CEA0" stroke-width="10" stroke-linecap="round" stroke-linejoin="round"/>
<path opacity="0.6" d="M216 545H365" stroke="#2B4FEB" stroke-width="10" stroke-linecap="round" stroke-linejoin="round"/>
<path d="M344 167H422" stroke="#2B4FEB" stroke-width="10" stroke-linecap="round" stroke-linejoin="round"/>
<path d="M216 565H412" stroke="#2B4FEB" stroke-width="10" stroke-linecap="round" stroke-linejoin="round"/>
<path d="M344 251H422" stroke="#2B4FEB" stroke-width="10" stroke-linecap="round" stroke-linejoin="round"/>
<path d="M216 647H421" stroke="#2B4FEB" stroke-width="10" stroke-linecap="round" stroke-linejoin="round"/>
<path opacity="0.6" d="M151 209H181" stroke="#21CEA0" stroke-width="10" stroke-linecap="round" stroke-linejoin="round"/>
<path d="M344 182H444" stroke="#2B4FEB" stroke-width="10" stroke-linecap="round" stroke-linejoin="round"/>
<path d="M216 580H431" stroke="#2B4FEB" stroke-width="10" stroke-linecap="round" stroke-linejoin="round"/>
<path d="M344 266H414" stroke="#2B4FEB" stroke-width="10" stroke-linecap="round" stroke-linejoin="round"/>
<path d="M216 662H354" stroke="#2B4FEB" stroke-width="10" stroke-linecap="round" stroke-linejoin="round"/>
<path opacity="0.6" d="M151 251H189" stroke="#21CEA0" stroke-width="10" stroke-linecap="round" stroke-linejoin="round"/>
<path opacity="0.6" d="M216 626H267" stroke="#2B4FEB" stroke-width="10" stroke-linecap="round" stroke-linejoin="round"/>
<path d="M344 197H420" stroke="#2B4FEB" stroke-width="10" stroke-linecap="round" stroke-linejoin="round"/>
<path d="M216 595H407" stroke="#2B4FEB" stroke-width="10" stroke-linecap="round" stroke-linejoin="round"/>
<path d="M344 281H444" stroke="#2B4FEB" stroke-width="10" stroke-linecap="round" stroke-linejoin="round"/>
<path d="M216 677H412" stroke="#2B4FEB" stroke-width="10" stroke-linecap="round" stroke-linejoin="round"/>
<path d="M344 296H431" stroke="#2B4FEB" stroke-width="10" stroke-linecap="round" stroke-linejoin="round"/>
<path d="M216 692H387" stroke="#2B4FEB" stroke-width="10" stroke-linecap="round" stroke-linejoin="round"/>
<path d="M324 398V430M324 430L311 416.743M324 430L337 416.743" stroke="#21CEA0" stroke-width="6" stroke-linecap="round" stroke-linejoin="round"/>
</svg>
